<?xml version="1.0" encoding="UTF-8"?>
<svg version="1.1" xmlns="http://www.w3.org/2000/svg" width="180" height="180">
<path d="M0 0 C1.58288818 0.00018127 1.58288818 0.00018127 3.19775391 0.00036621 C4.30006348 0.00548218 5.40237305 0.01059814 6.53808594 0.01586914 C7.55628418 0.01687622 8.57448242 0.0178833 9.62353516 0.0189209 C13.42318856 0.02414874 17.22282589 0.03811001 21.02246094 0.05102539 C33.76871094 0.08196289 33.76871094 0.08196289 46.77246094 0.11352539 C46.77246094 20.57352539 46.77246094 41.03352539 46.77246094 62.11352539 C35.22246094 62.11352539 23.67246094 62.11352539 11.77246094 62.11352539 C11.77246094 73.33352539 11.77246094 84.55352539 11.77246094 96.11352539 C-8.68753906 96.11352539 -29.14753906 96.11352539 -50.22753906 96.11352539 C-50.22753906 65.11352539 -50.22753906 65.11352539 -49.22753906 64.11352539 C-46.89593851 64.01443237 -44.56123965 63.98382035 -42.22753906 63.98852539 C-40.94878906 63.98594727 -39.67003906 63.98336914 -38.35253906 63.98071289 C-35.22753906 64.11352539 -35.22753906 64.11352539 -34.22753906 65.11352539 C-34.15428471 67.81221589 -34.13531555 70.47855095 -34.16503906 73.17602539 C-34.18566406 75.79540039 -34.20628906 78.41477539 -34.22753906 81.11352539 C-24.32753906 81.11352539 -14.42753906 81.11352539 -4.22753906 81.11352539 C-4.23914063 78.67075195 -4.25074219 76.22797852 -4.26269531 73.71118164 C-4.2704859 71.35481903 -4.27656265 68.99845784 -4.2824707 66.64208984 C-4.2875108 64.99983075 -4.29434284 63.35757616 -4.30297852 61.71533203 C-4.31505832 59.3597706 -4.32077045 57.0042683 -4.32519531 54.64868164 C-4.3303566 53.91013443 -4.33551788 53.17158722 -4.34083557 52.41065979 C-4.34103156 50.64454451 -4.28948625 48.87855393 -4.22753906 47.11352539 C-3.22753906 46.11352539 -3.22753906 46.11352539 0.00708008 46 C1.4406022 46.00015908 2.87413006 46.00585132 4.30761719 46.01586914 C5.43749306 46.01799156 5.43749306 46.01799156 6.5901947 46.02015686 C9.00515654 46.02577163 11.42002695 46.03832656 13.83496094 46.05102539 C15.46842314 46.05603849 17.1018868 46.06060173 18.73535156 46.06469727 C22.74778524 46.07489664 26.76002029 46.09446894 30.77246094 46.11352539 C30.77246094 36.21352539 30.77246094 26.31352539 30.77246094 16.11352539 C25.2402632 16.21089617 19.70873986 16.31389528 14.17700195 16.4309082 C12.29848435 16.46899171 10.41989894 16.50387905 8.54125977 16.53540039 C5.82771708 16.58150252 3.11463302 16.63941824 0.40136719 16.69946289 C-0.84138222 16.7167897 -0.84138222 16.7167897 -2.10923767 16.73446655 C-15.66915371 17.07119245 -28.63492091 21.88382029 -38.61816406 31.26977539 C-40.85860754 33.83649705 -42.53981679 36.59933898 -44.12207031 39.60961914 C-44.486875 40.1059082 -44.85167969 40.60219727 -45.22753906 41.11352539 C-46.21753906 41.11352539 -47.20753906 41.11352539 -48.22753906 41.11352539 C-47.70448531 29.34481601 -39.50836435 19.80799166 -31.22753906 12.11352539 C-22.38101491 5.22295238 -11.37516803 -0.02760963 0 0 Z " fill="#1D97E5" transform="translate(109.2275390625,58.886474609375)"/>
<path d="M0 0 C20.46 0 40.92 0 62 0 C62 10.56 62 21.12 62 32 C56.72 32 51.44 32 46 32 C46 26.39 46 20.78 46 15 C36.1 15 26.2 15 16 15 C16.01160156 17.44277344 16.02320313 19.88554688 16.03515625 22.40234375 C16.04294684 24.75870636 16.04902359 27.11506756 16.05493164 29.47143555 C16.05997174 31.11369464 16.06680378 32.75594923 16.07543945 34.39819336 C16.08751926 36.75375479 16.09323139 39.10925709 16.09765625 41.46484375 C16.10281754 42.20339096 16.10797882 42.94193817 16.11329651 43.7028656 C16.1134925 45.46898088 16.06194719 47.23497146 16 49 C15 50 15 50 11.76538086 50.11352539 C10.33185874 50.11336631 8.89833088 50.10767407 7.46484375 50.09765625 C6.33496788 50.09553383 6.33496788 50.09553383 5.18226624 50.09336853 C2.7673044 50.08775376 0.35243399 50.07519883 -2.0625 50.0625 C-3.69596221 50.0574869 -5.32942586 50.05292366 -6.96289062 50.04882812 C-10.9753243 50.03862875 -14.98755936 50.01905645 -19 50 C-19 59.9 -19 69.8 -19 80 C-13.66478941 79.92547153 -8.33109659 79.84217526 -2.99658203 79.73754883 C-1.18709558 79.70457596 0.6224869 79.67646089 2.43212891 79.65356445 C19.64950056 79.42990042 34.574318 77.74747175 48 66 C48.66 66 49.32 66 50 66 C50 65.34 50 64.68 50 64 C50.66 64 51.32 64 52 64 C52.4021875 63.1646875 52.4021875 63.1646875 52.8125 62.3125 C54.11616551 59.77378296 55.37008027 57.34708441 57 55 C57.99 55 58.98 55 60 55 C58.31287107 67.83355375 50.33355536 78.29847864 40.296875 86.1015625 C31.48428652 92.01858619 21.561777 96.14066273 10.8425293 96.11352539 C9.32073059 96.11334412 9.32073059 96.11334412 7.76818848 96.11315918 C6.71417847 96.10804321 5.66016846 96.10292725 4.57421875 96.09765625 C3.59634399 96.09664917 2.61846924 96.09564209 1.61096191 96.09460449 C-2.03020404 96.0893857 -5.67135324 96.07542444 -9.3125 96.0625 C-17.459375 96.041875 -25.60625 96.02125 -34 96 C-34 75.54 -34 55.08 -34 34 C-22.78 34 -11.56 34 0 34 C0 22.78 0 11.56 0 0 Z " fill="#1A91E5" transform="translate(59,25)"/>
<path d="" fill="#2DB7E2" transform="translate(0,0)"/>
</svg>
